<svg width="100" height="100" viewBox="0 0 100 100" fill="none" xmlns="http://www.w3.org/2000/svg">
<path d="M81.25 91.6666C82.9076 91.6666 84.4973 91.0081 85.6694 89.836C86.8415 88.6639 87.5 87.0742 87.5 85.4166C87.5 83.759 86.8415 82.1693 85.6694 80.9972C84.4973 79.8251 82.9076 79.1666 81.25 79.1666C79.5924 79.1666 78.0027 79.8251 76.8306 80.9972C75.6585 82.1693 75 83.759 75 85.4166C75 87.0742 75.6585 88.6639 76.8306 89.836C78.0027 91.0081 79.5924 91.6666 81.25 91.6666ZM39.5833 91.6666C41.2409 91.6666 42.8306 91.0081 44.0028 89.836C45.1749 88.6639 45.8333 87.0742 45.8333 85.4166C45.8333 83.759 45.1749 82.1693 44.0028 80.9972C42.8306 79.8251 41.2409 79.1666 39.5833 79.1666C37.9257 79.1666 36.336 79.8251 35.1639 80.9972C33.9918 82.1693 33.3333 83.759 33.3333 85.4166C33.3333 87.0742 33.9918 88.6639 35.1639 89.836C36.336 91.0081 37.9257 91.6666 39.5833 91.6666Z" fill="white" stroke="white" stroke-width="6" stroke-linecap="round" stroke-linejoin="round"/>
<path d="M20.8333 16.6666H91.6667L83.3333 62.5M20.8333 16.6666L29.1667 62.5H83.3333M20.8333 16.6666C20.1375 13.8875 16.6667 8.33331 8.33333 8.33331M83.3333 62.5H21.7917C14.3583 62.5 10.4167 65.7542 10.4167 70.8333C10.4167 75.9125 14.3583 79.1667 21.7917 79.1667H81.25" stroke="white" stroke-width="6" stroke-linecap="round" stroke-linejoin="round"/>
</svg>
