<svg width="40" height="40" viewBox="0 0 40 40" fill="none" xmlns="http://www.w3.org/2000/svg">
<path d="M32.5002 36.6667C33.1632 36.6667 33.7991 36.4034 34.2679 35.9345C34.7368 35.4657 35.0002 34.8298 35.0002 34.1667C35.0002 33.5037 34.7368 32.8678 34.2679 32.399C33.7991 31.9301 33.1632 31.6667 32.5002 31.6667C31.8371 31.6667 31.2012 31.9301 30.7324 32.399C30.2636 32.8678 30.0002 33.5037 30.0002 34.1667C30.0002 34.8298 30.2636 35.4657 30.7324 35.9345C31.2012 36.4034 31.8371 36.6667 32.5002 36.6667ZM15.8335 36.6667C16.4965 36.6667 17.1324 36.4034 17.6013 35.9345C18.0701 35.4657 18.3335 34.8298 18.3335 34.1667C18.3335 33.5037 18.0701 32.8678 17.6013 32.399C17.1324 31.9301 16.4965 31.6667 15.8335 31.6667C15.1705 31.6667 14.5346 31.9301 14.0657 32.399C13.5969 32.8678 13.3335 33.5037 13.3335 34.1667C13.3335 34.8298 13.5969 35.4657 14.0657 35.9345C14.5346 36.4034 15.1705 36.6667 15.8335 36.6667Z" fill="white" stroke="white" stroke-width="1.5" stroke-linecap="round" stroke-linejoin="round"/>
<path d="M8.3335 6.66671H36.6668L33.3335 25M8.3335 6.66671L11.6668 25H33.3335M8.3335 6.66671C8.05516 5.55504 6.66683 3.33337 3.3335 3.33337M33.3335 25H8.71683C5.7435 25 4.16683 26.3017 4.16683 28.3334C4.16683 30.365 5.7435 31.6667 8.71683 31.6667H32.5002" stroke="white" stroke-width="1.5" stroke-linecap="round" stroke-linejoin="round"/>
</svg>
