<svg width="100" height="100" viewBox="0 0 100 100" fill="none" xmlns="http://www.w3.org/2000/svg">
<path d="M15.625 12.5C14.7962 12.5 14.0013 12.8292 13.4153 13.4153C12.8292 14.0013 12.5 14.7962 12.5 15.625C12.5 16.4538 12.8292 17.2487 13.4153 17.8347C14.0013 18.4208 14.7962 18.75 15.625 18.75H17.1625C17.8411 18.7512 18.5008 18.9732 19.042 19.3825C19.5833 19.7918 19.9766 20.3661 20.1625 21.0187L30.075 55.7063C30.6356 57.6638 31.8184 59.3856 33.4444 60.6113C35.0704 61.837 37.0513 62.5 39.0875 62.5H67.6437C69.5178 62.5003 71.3489 61.939 72.9008 60.8884C74.4527 59.8379 75.6541 58.3463 76.35 56.6063L85.5625 33.5687C85.9412 32.6208 86.082 31.5945 85.9725 30.5796C85.863 29.5646 85.5065 28.592 84.9343 27.7466C84.3621 26.9013 83.5916 26.2089 82.69 25.7301C81.7884 25.2513 80.7833 25.0006 79.7625 25H27.8L26.1687 19.3C25.6095 17.3423 24.4282 15.6199 22.8034 14.3931C21.1785 13.1663 19.1985 12.5018 17.1625 12.5H15.625ZM40.625 87.5C41.8561 87.5 43.0752 87.2575 44.2127 86.7864C45.3501 86.3152 46.3836 85.6247 47.2541 84.7541C48.1247 83.8836 48.8152 82.8501 49.2864 81.7127C49.7575 80.5752 50 79.3561 50 78.125C50 76.8939 49.7575 75.6748 49.2864 74.5373C48.8152 73.3999 48.1247 72.3664 47.2541 71.4959C46.3836 70.6253 45.3501 69.9348 44.2127 69.4636C43.0752 68.9925 41.8561 68.75 40.625 68.75C38.1386 68.75 35.754 69.7377 33.9959 71.4959C32.2377 73.254 31.25 75.6386 31.25 78.125C31.25 80.6114 32.2377 82.996 33.9959 84.7541C35.754 86.5123 38.1386 87.5 40.625 87.5ZM65.625 87.5C66.8561 87.5 68.0752 87.2575 69.2127 86.7864C70.3501 86.3152 71.3836 85.6247 72.2541 84.7541C73.1247 83.8836 73.8152 82.8501 74.2864 81.7127C74.7575 80.5752 75 79.3561 75 78.125C75 76.8939 74.7575 75.6748 74.2864 74.5373C73.8152 73.3999 73.1247 72.3664 72.2541 71.4959C71.3836 70.6253 70.3501 69.9348 69.2127 69.4636C68.0752 68.9925 66.8561 68.75 65.625 68.75C63.1386 68.75 60.754 69.7377 58.9959 71.4959C57.2377 73.254 56.25 75.6386 56.25 78.125C56.25 80.6114 57.2377 82.996 58.9959 84.7541C60.754 86.5123 63.1386 87.5 65.625 87.5Z" fill="#F15D30"/>
</svg>
