<svg width="40" height="40" viewBox="0 0 40 40" fill="none" xmlns="http://www.w3.org/2000/svg">
<path d="M33.75 7.8125H27.1875V6.25C27.1875 5.33832 26.8253 4.46398 26.1807 3.81932C25.536 3.17466 24.6617 2.8125 23.75 2.8125H16.25C15.3383 2.8125 14.464 3.17466 13.8193 3.81932C13.1747 4.46398 12.8125 5.33832 12.8125 6.25V7.8125H6.25C6.00136 7.8125 5.7629 7.91127 5.58709 8.08709C5.41127 8.2629 5.3125 8.50136 5.3125 8.75C5.3125 8.99864 5.41127 9.2371 5.58709 9.41291C5.7629 9.58873 6.00136 9.6875 6.25 9.6875H7.8125V32.5C7.8125 33.0802 8.04297 33.6366 8.4532 34.0468C8.86344 34.457 9.41984 34.6875 10 34.6875H30C30.5802 34.6875 31.1366 34.457 31.5468 34.0468C31.957 33.6366 32.1875 33.0802 32.1875 32.5V9.6875H33.75C33.9986 9.6875 34.2371 9.58873 34.4129 9.41291C34.5887 9.2371 34.6875 8.99864 34.6875 8.75C34.6875 8.50136 34.5887 8.2629 34.4129 8.08709C34.2371 7.91127 33.9986 7.8125 33.75 7.8125ZM14.6875 6.25C14.6875 5.8356 14.8521 5.43817 15.1451 5.14515C15.4382 4.85212 15.8356 4.6875 16.25 4.6875H23.75C24.1644 4.6875 24.5618 4.85212 24.8549 5.14515C25.1479 5.43817 25.3125 5.8356 25.3125 6.25V7.8125H14.6875V6.25ZM30.3125 32.5C30.3125 32.5829 30.2796 32.6624 30.221 32.721C30.1624 32.7796 30.0829 32.8125 30 32.8125H10C9.91712 32.8125 9.83763 32.7796 9.77903 32.721C9.72042 32.6624 9.6875 32.5829 9.6875 32.5V9.6875H30.3125V32.5ZM17.1875 16.25V26.25C17.1875 26.4986 17.0887 26.7371 16.9129 26.9129C16.7371 27.0887 16.4986 27.1875 16.25 27.1875C16.0014 27.1875 15.7629 27.0887 15.5871 26.9129C15.4113 26.7371 15.3125 26.4986 15.3125 26.25V16.25C15.3125 16.0014 15.4113 15.7629 15.5871 15.5871C15.7629 15.4113 16.0014 15.3125 16.25 15.3125C16.4986 15.3125 16.7371 15.4113 16.9129 15.5871C17.0887 15.7629 17.1875 16.0014 17.1875 16.25ZM24.6875 16.25V26.25C24.6875 26.4986 24.5887 26.7371 24.4129 26.9129C24.2371 27.0887 23.9986 27.1875 23.75 27.1875C23.5014 27.1875 23.2629 27.0887 23.0871 26.9129C22.9113 26.7371 22.8125 26.4986 22.8125 26.25V16.25C22.8125 16.0014 22.9113 15.7629 23.0871 15.5871C23.2629 15.4113 23.5014 15.3125 23.75 15.3125C23.9986 15.3125 24.2371 15.4113 24.4129 15.5871C24.5887 15.7629 24.6875 16.0014 24.6875 16.25Z" fill="#999999"/>
</svg>
